<svg xmlns="http://www.w3.org/2000/svg" version="1.1" xmlns:xlink="http://www.w3.org/1999/xlink" xmlns:svgjs="http://svgjs.dev/svgjs" viewBox="0 0 800 800" opacity="0.82"><defs><symbol id="bbburst-shape-1" viewBox="0 0 194 167"><path d="m97 0 96.129 166.5H.871L97 0Z"></path></symbol><symbol id="bbburst-shape-2" viewBox="0 0 126 115"><path d="m63 0 62.77 43.877-23.976 70.996H24.206L.23 43.877 63 0Z"></path></symbol><symbol id="bbburst-shape-3" viewBox="0 0 131 127"><path d="m66 0 66 63.5L66 127 0 63.5 66 0Z"></path></symbol><symbol id="bbburst-shape-4" viewBox="0 0 149 143"><path d="M71.647 2.781c.898-2.764 4.808-2.764 5.706 0l15.445 47.534a3 3 0 0 0 2.853 2.073h49.98c2.906 0 4.115 3.719 1.764 5.427L106.96 87.193a2.999 2.999 0 0 0-1.09 3.354l15.445 47.534c.898 2.764-2.266 5.062-4.617 3.354l-40.435-29.378a3 3 0 0 0-3.526 0l-40.435 29.378c-2.351 1.708-5.515-.59-4.617-3.354L43.13 90.547a3 3 0 0 0-1.09-3.354L1.605 57.815c-2.35-1.708-1.142-5.427 1.764-5.427h49.98a3 3 0 0 0 2.853-2.073L71.647 2.781Z"></path></symbol><symbol id="bbburst-shape-5" viewBox="0 0 145 145"><circle cx="72.5" cy="72.5" r="72.5"></circle></symbol><symbol id="bbburst-shape-6" viewBox="0 0 133 116"><path d="M59.7487 10.2513c-13.6683-13.66839-35.8291-13.66839-49.4974 0-13.66839 13.6683-13.66839 35.8291 0 49.4974l49.4974-49.4974ZM66.5 66.5 41.7513 91.2487 66.5 115.997l24.7487-24.7483L66.5 66.5Zm56.249-6.7513c13.668-13.6683 13.668-35.8291 0-49.4974-13.669-13.66839-35.8294-13.66839-49.4977 0l49.4977 49.4974Zm-112.4977 0 31.5 31.5 49.4974-49.4974-31.5-31.5-49.4974 49.4974Zm80.9974 31.5 31.5003-31.5-49.4977-49.4974-31.5 31.5 49.4974 49.4974Z"></path></symbol><symbol id="bbburst-shape-7" viewBox="0 0 139 124"><path fill-rule="evenodd" clip-rule="evenodd" d="M70.1641 15.0917C54.6093.764854 37.8293-2.10782 24.4032 2.82615 10.3804 7.97941.763366 21.4591 1.00047 37.0608c.1068 7.0273 2.86132 13.7317 7.0039 20.2001C12.1442 63.7249 17.853 70.2322 24.25 76.9024c3.8209 3.9842 7.8871 8.0312 12.0767 12.201h.0001c10.0335 9.9862 20.7748 20.6766 30.5497 32.8956 1.38 1.725 3.8972 2.005 5.6223.624.6706-.536 1.1228-1.244 1.3439-2.011 9.5768-11.748 20.0328-22.0735 29.8163-31.7351 4.19-4.1373 8.256-8.1528 12.078-12.1062 6.396-6.6176 12.106-13.0752 16.247-19.4911 4.144-6.4196 6.905-13.0811 7.012-20.0691.237-15.5124-9.399-28.8902-23.411-33.99923-13.32-4.85681-29.9542-2.08621-45.4209 11.88043Zm-3.7351 7.4919C52.1278 8.44857 37.6826 6.46918 27.1626 10.3352 16.2859 14.3323 8.8148 24.7824 8.99955 36.9392c.07575 4.9844 2.03755 10.2234 5.74165 16.0072 3.707 5.7881 8.9752 11.8418 15.2827 18.4187 3.5798 3.7328 7.4978 7.6329 11.6 11.7163 9.0476 9.0063 18.9911 18.9046 28.1786 29.8666 9.2999-11.068 19.4036-21.0473 28.5839-30.1144l.0007-.0006c4.1019-4.0508 8.0189-7.9196 11.5979-11.6222 6.307-6.5252 11.573-12.5298 15.278-18.2697 3.703-5.7362 5.658-10.924 5.734-15.8531.184-12.0276-7.267-22.3914-18.153-26.3608-10.71-3.90518-25.4722-1.80041-40.0023 12.867-1.5547 1.5694-4.0874 1.5813-5.6568.0265-.3146-.3116-.5666-.6625-.7559-1.0371Z"></path></symbol><symbol id="bbburst-shape-8" viewBox="0 0 87 168"><path d="m12 12 31.2546 18.0749c16.4102 9.4902 20.014 31.6325 7.4603 45.8369L36.3296 92.1884c-12.5684 14.2206-8.9394 36.3916 7.5068 45.8636L75 156" stroke-width="14" stroke-linecap="round" stroke-linejoin="round"></path></symbol><symbol id="bbburst-shape-9" viewBox="0 0 182 172"><path d="M13.5809 69.845 91 13.5967l77.419 56.2483-29.571 91.012H43.1524L13.5809 69.845Z" stroke-width="22"></path></symbol><symbol id="bbburst-shape-10" viewBox="0 0 145 145"><circle cx="72.5" cy="72.5" r="61.5" fill="none" stroke-width="22"></circle></symbol><symbol id="bbburst-shape-11" viewBox="0 0 194 167"><path d="M10.398 161 97 11l86.603 150H10.397Z" stroke-width="11"></path></symbol><symbol id="bbburst-shape-12" viewBox="0 0 170 151"><path d="M69.3728 54.2122 85 10.0031l15.627 44.2091c1.413 3.9958 5.19 6.6672 9.428 6.6673h49.312l-39.149 26.1447c-3.803 2.5401-5.399 7.3367-3.875 11.6488l15.179 42.94-40.9683-27.36c-3.3621-2.245-7.7453-2.245-11.1074 0l-40.9682 27.36 15.1785-42.94c1.5243-4.3121-.0712-9.1087-3.8746-11.6488L10.6333 60.8795h49.3112c4.2381-.0001 8.0159-2.6715 9.4283-6.6673Z" stroke-width="12"></path></symbol><symbol id="bbburst-shape-13" viewBox="0 0 159 159"><path stroke-width="22" d="M11 11h137v137H11z"></path></symbol><symbol id="bbburst-shape-14" viewBox="0 0 185 109"><path d="M168 16.5C168 58.1975 134.197 92 92.5 92 50.8025 92 17 58.1975 17 16.5" stroke-width="33" stroke-linecap="round"></path></symbol></defs><use xlink:href="#bbburst-shape-12" width="32.93978571614045" opacity="0.13864830064795086" transform="matrix(0.9620053688668181,0.2730305299255328,-0.2730305299255328,0.9620053688668181,764.2948395286769,287.8577628621026)" fill="none" stroke="#ffa6d5"></use><use xlink:href="#bbburst-shape-11" width="33.7490396378558" opacity="0.18843104923184573" transform="matrix(0.9669507027585924,-0.25496340606970314,0.25496340606970314,0.9669507027585924,255.89284697944913,-347.1994854365144)" fill="none" stroke="#00a19d"></use><use xlink:href="#bbburst-shape-2" width="29.583576892983338" opacity="0.3001377155986835" transform="matrix(0.7408485557371398,0.6716721056156747,-0.6716721056156747,0.7408485557371398,969.5407593805279,137.7990360215275)" fill="#00a19d"></use><use xlink:href="#bbburst-shape-12" width="14.011482871559135" opacity="0.8009177603744422" transform="matrix(0.9987617357091265,0.04974932445061816,-0.04974932445061816,0.9987617357091265,483.428286934824,-55.12479411745994)" fill="none" stroke="#00a19d"></use><use xlink:href="#bbburst-shape-5" width="36.376519336127004" opacity="0.21628503629873852" transform="matrix(0.9048015339127755,0.42583351703346284,-0.42583351703346284,0.9048015339127755,901.4127753039231,-29.632385670273038)" fill="#00a19d"></use><use xlink:href="#bbburst-shape-5" width="8.776226689091342" opacity="0.9187666578880463" transform="matrix(0.9999634731823275,0.008547063889822742,-0.008547063889822742,0.9999634731823275,394.13286400705346,-36.248270438169016)" fill="#2c2891"></use><use xlink:href="#bbburst-shape-4" width="9.153929900502739" opacity="0.8316880556051507" transform="matrix(0.793477709284232,-0.6085993138913712,0.6085993138913712,0.793477709284232,226.12577164174718,104.8820601364771)" fill="#00a19d"></use><use xlink:href="#bbburst-shape-1" width="12.471409490526941" opacity="0.8251690329070986" transform="matrix(0.9612867121156367,0.2755500990925409,-0.2755500990925409,0.9612867121156367,473.7821049002711,86.32935874301529)" fill="#00a19d"></use><use xlink:href="#bbburst-shape-7" width="29.762775017106897" opacity="0.4819171008443166" transform="matrix(0.9946174713481868,-0.1036150842731826,0.1036150842731826,0.9946174713481868,549.2041303965208,113.69018239383007)" fill="#00a19d"></use><use xlink:href="#bbburst-shape-9" width="16.432663902840194" opacity="0.6546155983705214" transform="matrix(0.9482631095568979,-0.3174855509365471,0.3174855509365471,0.9482631095568979,420.3867256440567,31.382046791282505)" fill="none" stroke="#00a19d"></use><use xlink:href="#bbburst-shape-13" width="12.66064181941603" opacity="0.7990938224925348" transform="matrix(0.9588330403294535,0.28397042235517544,-0.28397042235517544,0.9588330403294535,419.54902087342884,35.52445199691783)" fill="none" stroke="#ffa6d5"></use><use xlink:href="#bbburst-shape-4" width="29.481821469877872" opacity="0.37485596205872884" transform="matrix(0.7154108618149333,-0.6987040137262805,0.6987040137262805,0.7154108618149333,205.1391448027636,-140.58118163194013)" fill="#ffa6d5"></use><use xlink:href="#bbburst-shape-12" width="24.175648982498736" opacity="0.5722637040901015" transform="matrix(0.9798007066937241,-0.19997643651810282,0.19997643651810282,0.9798007066937241,167.1431003278763,141.46606288554852)" fill="none" stroke="#ffa6d5"></use><use xlink:href="#bbburst-shape-8" width="35.5514514655534" opacity="0.14291417297526132" transform="matrix(0.7358794456154063,-0.6771125766966393,0.6771125766966393,0.7358794456154063,475.6175942157548,-21.90152579053506)" fill="none" stroke="#2c2891"></use><use xlink:href="#bbburst-shape-8" width="15.161107705296889" opacity="0.7617290456888467" transform="matrix(0.9333252327687774,-0.3590320457523358,0.3590320457523358,0.9333252327687774,354.47721427647036,50.292120852462006)" fill="none" stroke="#00a19d"></use><use xlink:href="#bbburst-shape-1" width="33.22343944812811" opacity="0.46778326031404704" transform="matrix(0.9999313196093496,0.01171990035388135,-0.01171990035388135,0.9999313196093496,183.93279264002933,125.11238247867908)" fill="#ffa6d5"></use><use xlink:href="#bbburst-shape-11" width="11.758990013027978" opacity="0.8271289551560403" transform="matrix(0.9747874687568278,-0.2231353641954959,0.2231353641954959,0.9747874687568278,267.74371969035695,-57.051524769329376)" fill="none" stroke="#2c2891"></use><use xlink:href="#bbburst-shape-10" width="11.015389172193206" opacity="0.8181987629484329" transform="matrix(0.9225990515440793,0.38576027541721475,-0.38576027541721475,0.9225990515440793,547.9074607253032,110.63571114828449)" fill="none" stroke="#ff5c58"></use><use xlink:href="#bbburst-shape-8" width="20.7467326151084" opacity="0.6196021606494717" transform="matrix(0.9946530944391745,0.10327256035644004,-0.10327256035644004,0.9946530944391745,470.66100954950537,167.58643060050701)" fill="none" stroke="#00a19d"></use><use xlink:href="#bbburst-shape-5" width="10.87956972496287" opacity="0.8736545750221676" transform="matrix(0.9941566387971669,-0.10794710526697557,0.10794710526697557,0.9941566387971669,331.7259154855768,-50.41355695287342)" fill="#00a19d"></use><use xlink:href="#bbburst-shape-11" width="26.226782798677487" opacity="0.3683912518192679" transform="matrix(0.9169577562606247,-0.3989843019887885,0.3989843019887885,0.9169577562606247,231.34967699168155,-246.06797813795475)" fill="none" stroke="#ff5c58"></use><use xlink:href="#bbburst-shape-14" width="26.041126669939857" opacity="0.4775424873344095" transform="matrix(0.9570641571750307,-0.28987617882614675,0.28987617882614675,0.9570641571750307,44.70662820769161,82.58575197475608)" fill="none" stroke="#00a19d"></use><use xlink:href="#bbburst-shape-13" width="35.40878999553834" opacity="0.23932407767992647" transform="matrix(0.8839444500185043,-0.46759192602255656,0.46759192602255656,0.8839444500185043,369.47747042049053,-241.1569415888734)" fill="none" stroke="#ffa6d5"></use><use xlink:href="#bbburst-shape-3" width="10.606508452547086" opacity="0.750054718965493" transform="matrix(0.8781813300388194,0.47832787036848506,-0.47832787036848506,0.8781813300388194,533.8206298040549,145.47395637650857)" fill="#ff5c58"></use><use xlink:href="#bbburst-shape-5" width="8.345813216824551" opacity="0.9258181684198641" transform="matrix(0.9235744110762332,-0.38341923165797126,0.38341923165797126,0.9235744110762332,232.14184934790308,63.812137033084696)" fill="#00a19d"></use><use xlink:href="#bbburst-shape-3" width="26.250144322140592" opacity="0.5999968547800913" transform="matrix(0.7379473052514637,-0.6748583367434258,0.6748583367434258,0.7379473052514637,271.24705891702877,15.692022841501284)" fill="#2c2891"></use><use xlink:href="#bbburst-shape-1" width="21.99771361484701" opacity="0.5433829520848764" transform="matrix(0.9955692136305915,0.09403159506764534,-0.09403159506764534,0.9955692136305915,513.3774531521872,187.04869822394312)" fill="#00a19d"></use><use xlink:href="#bbburst-shape-2" width="42.65514026131538" opacity="0.1779157806930627" transform="matrix(0.871586453308575,0.4902418325775343,-0.4902418325775343,0.871586453308575,308.42688560747183,-212.95162256359112)" fill="#2c2891"></use><use xlink:href="#bbburst-shape-4" width="11.31290191186026" opacity="0.8054001630723099" transform="matrix(0.7711719714811518,0.6366268847620824,-0.6366268847620824,0.7711719714811518,662.929212205383,1.286223646678991)" fill="#2c2891"></use><use xlink:href="#bbburst-shape-12" width="20.77965074258892" opacity="0.5546722026522097" transform="matrix(0.9371769749848775,0.348854292732932,-0.348854292732932,0.9371769749848775,657.4429431060189,-133.0329347554411)" fill="none" stroke="#ffbd9b"></use><use xlink:href="#bbburst-shape-10" width="8.785612205264961" opacity="0.9507752076168362" transform="matrix(0.7120456026840045,0.7021332207625365,-0.7021332207625365,0.7120456026840045,692.3088138892813,128.77069903174765)" fill="none" stroke="#ffbd9b"></use><use xlink:href="#bbburst-shape-10" width="15.587522934995054" opacity="0.7652785791710187" transform="matrix(0.87311407630295,-0.487515958468691,0.487515958468691,0.87311407630295,92.63855138698295,50.5900005265168)" fill="none" stroke="#00a19d"></use><use xlink:href="#bbburst-shape-12" width="19.228024806123486" opacity="0.6472553455350367" transform="matrix(0.9998904293172939,-0.014803018600197875,0.014803018600197875,0.9998904293172939,280.89240355063316,-120.1378660379807)" fill="none" stroke="#2c2891"></use><use xlink:href="#bbburst-shape-12" width="16.217395271579527" opacity="0.7293207496411649" transform="matrix(0.9375671237530411,-0.34780438245865997,0.34780438245865997,0.9375671237530411,374.16716877890417,12.952982622221384)" fill="none" stroke="#00a19d"></use><use xlink:href="#bbburst-shape-13" width="23.80722338292975" opacity="0.49160434488500815" transform="matrix(0.9289263228364184,0.370264617188316,-0.370264617188316,0.9289263228364184,308.5216019881102,13.300462484527543)" fill="none" stroke="#ffbd9b"></use><use xlink:href="#bbburst-shape-10" width="20.634094654282553" opacity="0.6131313862058902" transform="matrix(0.9910203018122871,0.13371148565431237,-0.13371148565431237,0.9910203018122871,388.644156836525,-163.08954123236404)" fill="none" stroke="#ffbd9b"></use><use xlink:href="#bbburst-shape-10" width="29.28821971357249" opacity="0.263989165592575" transform="matrix(0.7235020198388882,-0.6903222633589685,0.6903222633589685,0.7235020198388882,295.43809485623314,397.319370911998)" fill="none" stroke="#ff5c58"></use><use xlink:href="#bbburst-shape-8" width="12.668776176585423" opacity="0.7744958831718038" transform="matrix(0.9414883628181548,-0.3370454905172155,0.3370454905172155,0.9414883628181548,344.80213403887797,80.06407400438479)" fill="none" stroke="#00a19d"></use><use xlink:href="#bbburst-shape-8" width="31.84563400438435" opacity="0.437050073745196" transform="matrix(0.8640198978881205,0.5034576606363258,-0.5034576606363258,0.8640198978881205,491.16815308817365,-187.86957669812543)" fill="none" stroke="#00a19d"></use><use xlink:href="#bbburst-shape-12" width="21.422082949257252" opacity="0.47734731270268926" transform="matrix(0.9732574528711142,-0.22971706604175265,0.22971706604175265,0.9732574528711142,515.0838885610999,-76.61022360154857)" fill="none" stroke="#ffa6d5"></use><use xlink:href="#bbburst-shape-6" width="31.453925452182062" opacity="0.12588040457868088" transform="matrix(0.86442745883486,0.502757564251704,-0.502757564251704,0.86442745883486,732.4491158113906,-319.3540349584207)" fill="#2c2891"></use><use xlink:href="#bbburst-shape-14" width="41.232018852637765" opacity="0.033862964853290656" transform="matrix(0.9884029412385428,-0.15185396192064823,0.15185396192064823,0.9884029412385428,-38.46049276654627,-239.80093250796503)" fill="none" stroke="#ff5c58"></use><use xlink:href="#bbburst-shape-4" width="7.67006163552878" opacity="0.9550626247040446" transform="matrix(0.9869440938123708,0.16106320401903781,-0.16106320401903781,0.9869440938123708,452.0830339884663,-13.710944873107849)" fill="#ffbd9b"></use><use xlink:href="#bbburst-shape-7" width="32.1566217128231" opacity="0.21130896292204093" transform="matrix(0.7664737885205267,-0.6422755884439255,0.6422755884439255,0.7664737885205267,192.1761128921745,-245.73792395390802)" fill="#00a19d"></use><use xlink:href="#bbburst-shape-5" width="8.903445608151785" opacity="0.8604375339283095" transform="matrix(0.8903770449523143,0.4552238106931408,-0.4552238106931408,0.8903770449523143,605.9478977432893,-14.481541361196435)" fill="#2c2891"></use><use xlink:href="#bbburst-shape-4" width="21.12997000241993" opacity="0.5213708397132646" transform="matrix(0.9930379287925307,0.11779504225323215,-0.11779504225323215,0.9930379287925307,433.26800884824934,216.91633745005277)" fill="#2c2891"></use><use xlink:href="#bbburst-shape-14" width="25.53244376146992" opacity="0.451397215818906" transform="matrix(0.75378748068898,0.6571182800353073,-0.6571182800353073,0.75378748068898,848.221826542771,-61.24675970801857)" fill="none" stroke="#00a19d"></use><use xlink:href="#bbburst-shape-5" width="35.61447807788478" opacity="0.17081538645498706" transform="matrix(0.9956918363308406,-0.09272414498995729,0.09272414498995729,0.9956918363308406,108.8519917566216,292.1259729444078)" fill="#2c2891"></use><use xlink:href="#bbburst-shape-6" width="13.59076027248722" opacity="0.7957979696007638" transform="matrix(0.9896828624480958,0.14327537044636626,-0.14327537044636626,0.9896828624480958,430.9620101769101,-86.6178989101752)" fill="#ffbd9b"></use><use xlink:href="#bbburst-shape-14" width="17.5608874205633" opacity="0.6827188537239903" transform="matrix(0.8561916305524105,0.5166583898205899,-0.5166583898205899,0.8561916305524105,554.2171647994226,188.53456239564412)" fill="none" stroke="#ff5c58"></use><use xlink:href="#bbburst-shape-5" width="36.31775293423097" opacity="-0.09130961692700823" transform="matrix(0.9780276960655523,0.20847500024872911,-0.20847500024872911,0.9780276960655523,121.59157059468453,-345.4339424247003)" fill="#00a19d"></use><use xlink:href="#bbburst-shape-2" width="23.097434080122667" opacity="0.452599218093255" transform="matrix(0.8123896365410487,0.5831149787483622,-0.5831149787483622,0.8123896365410487,676.5643081222992,308.9448051418638)" fill="#00a19d"></use><use xlink:href="#bbburst-shape-6" width="32.767681288383926" opacity="0.4302780645810703" transform="matrix(0.9774115757675781,0.2113447694066263,-0.2113447694066263,0.9774115757675781,607.3312835251155,221.1203668679621)" fill="#ffa6d5"></use><use xlink:href="#bbburst-shape-1" width="21.156236967868377" opacity="0.6142535989627838" transform="matrix(0.7605088931328062,-0.6493275163320232,0.6493275163320232,0.7605088931328062,279.6800942070339,194.30490374355077)" fill="#2c2891"></use><use xlink:href="#bbburst-shape-10" width="10.465075837691133" opacity="0.9107730074947877" transform="matrix(0.8703278690724672,-0.49247274068295227,0.49247274068295227,0.8703278690724672,234.92321433272025,71.25051915791352)" fill="none" stroke="#ffbd9b"></use><use xlink:href="#bbburst-shape-4" width="26.022174990317104" opacity="0.5282581655154355" transform="matrix(0.9731127577589403,0.23032924409807343,-0.23032924409807343,0.9731127577589403,630.3197665452327,157.13714676482005)" fill="#ffbd9b"></use><use xlink:href="#bbburst-shape-5" width="30.197141871473917" opacity="0.3550088670334113" transform="matrix(0.9632749605817914,-0.26851694605024135,0.26851694605024135,0.9632749605817914,496.4921415481345,209.8604610591961)" fill="#ff5c58"></use><use xlink:href="#bbburst-shape-12" width="9.414866920302117" opacity="0.9060264593085614" transform="matrix(0.9566575172508627,-0.2912153750876067,0.2912153750876067,0.9566575172508627,236.7174535898581,18.611256728741182)" fill="none" stroke="#ff5c58"></use><use xlink:href="#bbburst-shape-7" width="26.637020322615555" opacity="0.5187556597519158" transform="matrix(0.9823926091840796,0.18682816013785597,-0.18682816013785597,0.9823926091840796,353.20359050418296,192.03332435483242)" fill="#ffbd9b"></use><use xlink:href="#bbburst-shape-8" width="19.42669909261297" opacity="0.6059222295070439" transform="matrix(0.997557859292144,-0.06984495231922626,0.06984495231922626,0.997557859292144,200.94468333009067,75.06370863034107)" fill="none" stroke="#2c2891"></use><use xlink:href="#bbburst-shape-2" width="26.601491777281865" opacity="0.5766117388001533" transform="matrix(0.7232659674837908,-0.6905695767116707,0.6905695767116707,0.7232659674837908,60.85143795629625,302.80289632064523)" fill="#ff5c58"></use><use xlink:href="#bbburst-shape-5" width="32.04651438756596" opacity="0.2154668538638469" transform="matrix(0.7567261391772092,0.6537320171797882,-0.6537320171797882,0.7567261391772092,526.431811395559,417.77869927600494)" fill="#ff5c58"></use><use xlink:href="#bbburst-shape-13" width="8.063113179802512" opacity="0.8946035729443821" transform="matrix(0.7886656410141741,-0.6148223374957207,0.6148223374957207,0.7886656410141741,108.30180050921538,107.8827126189405)" fill="none" stroke="#ff5c58"></use><use xlink:href="#bbburst-shape-13" width="32.197000679708005" opacity="0.39501468591300193" transform="matrix(0.9969838808427606,-0.07760889987435837,0.07760889987435837,0.9969838808427606,177.82942003931737,-206.02553618824777)" fill="none" stroke="#2c2891"></use><use xlink:href="#bbburst-shape-9" width="31.231916981810034" opacity="0.1759932908094165" transform="matrix(0.7106578515291982,0.7035377872295874,-0.7035377872295874,0.7106578515291982,609.9155388069396,470.4267093564126)" fill="none" stroke="#2c2891"></use><use xlink:href="#bbburst-shape-2" width="21.66295488103122" opacity="0.527880933079319" transform="matrix(0.999981723416013,0.006045893973638547,-0.006045893973638547,0.999981723416013,480.0251168628812,-193.2187318324737)" fill="#ffa6d5"></use><use xlink:href="#bbburst-shape-12" width="8.788845023791444" opacity="0.8423777217909508" transform="matrix(0.9990621820077535,-0.04329845819317752,0.04329845819317752,0.9990621820077535,444.2020975891773,-25.65382087870495)" fill="none" stroke="#ffa6d5"></use><use xlink:href="#bbburst-shape-11" width="33.52987867492531" opacity="0.05559482349659162" transform="matrix(0.7127355035540369,-0.701432891995787,0.701432891995787,0.7127355035540369,334.7170111649637,485.2925812601619)" fill="none" stroke="#ffa6d5"></use><use xlink:href="#bbburst-shape-1" width="16.85748309536629" opacity="0.7230957118830159" transform="matrix(0.9983661394224641,-0.05714063050654019,0.05714063050654019,0.9983661394224641,426.01893745135504,111.81338328024424)" fill="#ffbd9b"></use><use xlink:href="#bbburst-shape-7" width="10.405247713883483" opacity="0.8511033720933824" transform="matrix(0.9671564141698576,-0.25418196342404564,0.25418196342404564,0.9671564141698576,348.32373220155455,52.64049033403404)" fill="#00a19d"></use><use xlink:href="#bbburst-shape-3" width="14.859893930018973" opacity="0.7162207901780111" transform="matrix(0.9653110433525911,-0.2611026418509242,0.2611026418509242,0.9653110433525911,276.0027559073908,-111.27369943087137)" fill="#00a19d"></use><use xlink:href="#bbburst-shape-3" width="6.614024591681227" opacity="0.9473359275600783" transform="matrix(0.9846853821110609,0.17434075328733087,-0.17434075328733087,0.9846853821110609,490.07629602269367,3.628447243303299)" fill="#ff5c58"></use><use xlink:href="#bbburst-shape-14" width="10.629219982035366" opacity="0.886710256097582" transform="matrix(0.7942465326619234,0.6075956265103563,-0.6075956265103563,0.7942465326619234,592.5666551960697,57.61977527806181)" fill="none" stroke="#2c2891"></use><use xlink:href="#bbburst-shape-12" width="10.035330460047973" opacity="0.8053591251854981" transform="matrix(0.996777465386999,-0.08021648519269696,0.08021648519269696,0.996777465386999,449.7695926283834,-9.60568099660884)" fill="none" stroke="#ff5c58"></use><use xlink:href="#bbburst-shape-9" width="19.3309963430573" opacity="0.6846285499198175" transform="matrix(0.7680077644702629,0.640440530973321,-0.640440530973321,0.7680077644702629,751.4808781695564,-11.496441715077765)" fill="none" stroke="#ff5c58"></use><use xlink:href="#bbburst-shape-13" width="14.635387109435033" opacity="0.7487900338278837" transform="matrix(0.9783754576817718,-0.20683680476642327,0.20683680476642327,0.9783754576817718,204.4087351342984,-29.92628444319695)" fill="none" stroke="#ffa6d5"></use><use xlink:href="#bbburst-shape-3" width="32.99106136318869" opacity="0.1418403188929278" transform="matrix(0.991718782634633,0.12842840873296507,-0.12842840873296507,0.991718782634633,303.48335844694543,-361.949768081137)" fill="#ff5c58"></use><use xlink:href="#bbburst-shape-13" width="14.341826147675384" opacity="0.7338831083677018" transform="matrix(0.7791877118508881,-0.6267906426396116,0.6267906426396116,0.7791877118508881,251.38095380318867,40.42974593763421)" fill="none" stroke="#00a19d"></use><use xlink:href="#bbburst-shape-5" width="10.746139863837957" opacity="0.8771447676946313" transform="matrix(0.9746474830350389,-0.22374602524617876,0.22374602524617876,0.9746474830350389,298.50657585069234,66.21343493612812)" fill="#00a19d"></use><use xlink:href="#bbburst-shape-3" width="16.58211170007325" opacity="0.7551608431250286" transform="matrix(0.7525131218933381,-0.6585772554365525,0.6585772554365525,0.7525131218933381,114.33337498774046,213.51387706899698)" fill="#ffa6d5"></use><use xlink:href="#bbburst-shape-7" width="28.369480378975783" opacity="0.3394160944989918" transform="matrix(0.8925486030967056,-0.4509512070170336,0.4509512070170336,0.8925486030967056,-88.82165816949339,79.99510780611257)" fill="#ffa6d5"></use><use xlink:href="#bbburst-shape-2" width="19.005137419214797" opacity="0.6925222446580569" transform="matrix(0.9070218285646733,-0.4210836051275285,0.4210836051275285,0.9070218285646733,352.03776472277104,91.01724358723175)" fill="#2c2891"></use><use xlink:href="#bbburst-shape-6" width="9.036381340120032" opacity="0.9453524991628539" transform="matrix(0.7213100557420421,0.6926123038796035,-0.6926123038796035,0.7213100557420421,688.2302160659392,88.4445525707115)" fill="#ffa6d5"></use><use xlink:href="#bbburst-shape-13" width="28.957422259593027" opacity="0.17978821309103243" transform="matrix(0.9660272319818304,-0.2584402969150185,0.2584402969150185,0.9660272319818304,-86.38588613736624,10.022989487317659)" fill="none" stroke="#ffbd9b"></use><use xlink:href="#bbburst-shape-2" width="25.144070897991657" opacity="0.6136476538465407" transform="matrix(0.8399560697712628,-0.5426544027780605,0.5426544027780605,0.8399560697712628,-0.6102653570758036,88.15328274499251)" fill="#2c2891"></use><use xlink:href="#bbburst-shape-2" width="30.34099921513345" opacity="0.02126748008641821" transform="matrix(0.8627925592922101,0.5055581070757328,-0.5055581070757328,0.8627925592922101,951.0415641431176,298.2161638637315)" fill="#00a19d"></use><use xlink:href="#bbburst-shape-10" width="9.48348709325934" opacity="0.9384523500357075" transform="matrix(0.9691671064411925,-0.24640438265665265,0.24640438265665265,0.9691671064411925,273.15242247380706,27.849487628262807)" fill="none" stroke="#2c2891"></use><use xlink:href="#bbburst-shape-13" width="33.70758430553117" opacity="0.0450397858373951" transform="matrix(0.9982705367020285,-0.05878720568834657,0.05878720568834657,0.9982705367020285,-6.915006889757194,225.94156972217297)" fill="none" stroke="#ffbd9b"></use><use xlink:href="#bbburst-shape-5" width="29.776444581501494" opacity="0.33615511552432753" transform="matrix(0.7971182469541768,0.6038232360324501,-0.6038232360324501,0.7971182469541768,480.6195951068662,331.0570479853257)" fill="#2c2891"></use><use xlink:href="#bbburst-shape-5" width="28.603088497633852" opacity="0.44705725442869637" transform="matrix(0.7570591000324224,0.6533464005090245,-0.6533464005090245,0.7570591000324224,897.2500361846858,119.98161771744395)" fill="#ffa6d5"></use><use xlink:href="#bbburst-shape-12" width="12.936172102842763" opacity="0.8230963956277516" transform="matrix(0.808521814515067,0.5884662058718951,-0.5884662058718951,0.808521814515067,556.1380850026485,43.50189482223715)" fill="none" stroke="#ffbd9b"></use><use xlink:href="#bbburst-shape-5" width="9.707488991516085" opacity="0.9157707433277253" transform="matrix(0.8894464590664372,0.45703938173222747,-0.45703938173222747,0.8894464590664372,588.1162844177048,78.66571812720082)" fill="#ffa6d5"></use><use xlink:href="#bbburst-shape-3" width="43.72054749711548" opacity="0.034110717543183844" transform="matrix(0.7084899560574347,-0.705720895372763,0.705720895372763,0.7084899560574347,352.1468988876204,-223.37896764753515)" fill="#ffa6d5"></use><use xlink:href="#bbburst-shape-12" width="17.689615422803293" opacity="0.6919847600534342" transform="matrix(0.7422613485939449,-0.6701105060984331,0.6701105060984331,0.7422613485939449,14.845345329950248,192.64285415608208)" fill="none" stroke="#2c2891"></use><use xlink:href="#bbburst-shape-11" width="34.27102733659624" opacity="0.26053103922272347" transform="matrix(0.8635030594191938,0.5043435995169288,-0.5043435995169288,0.8635030594191938,290.54603625047247,-105.24887552485063)" fill="none" stroke="#00a19d"></use><use xlink:href="#bbburst-shape-2" width="28.82394341615706" opacity="0.538834068665135" transform="matrix(0.9879207869624427,0.1549597324710778,-0.1549597324710778,0.9879207869624427,331.35191198688125,-169.19940741603082)" fill="#ff5c58"></use><use xlink:href="#bbburst-shape-8" width="25.512659991983412" opacity="0.36424766311590906" transform="matrix(0.968978893947582,0.24714348683329826,-0.24714348683329826,0.968978893947582,254.9160973007451,-158.7235359407782)" fill="none" stroke="#ff5c58"></use><use xlink:href="#bbburst-shape-5" width="8.096075446886301" opacity="0.9480488289933614" transform="matrix(0.9999487360965975,-0.01012547178245176,0.01012547178245176,0.9999487360965975,369.55773007657564,-6.81358351203113)" fill="#2c2891"></use><use xlink:href="#bbburst-shape-13" width="6.927273857266519" opacity="0.993793336538046" transform="matrix(0.8122128334847317,0.5833612201052649,-0.5833612201052649,0.8122128334847317,632.0742273892307,70.7661942890822)" fill="none" stroke="#00a19d"></use><use xlink:href="#bbburst-shape-8" width="18.546885320808677" opacity="0.6563256028352713" transform="matrix(0.9407660139731491,-0.3390564952232483,0.3390564952232483,0.9407660139731491,322.96787226751877,-112.39738207164731)" fill="none" stroke="#00a19d"></use><use xlink:href="#bbburst-shape-4" width="14.464981225490588" opacity="0.7991395485311502" transform="matrix(0.8161137996308839,0.5778912233734317,-0.5778912233734317,0.8161137996308839,681.33324909116,140.26651027605152)" fill="#00a19d"></use><use xlink:href="#bbburst-shape-9" width="20.513005526071623" opacity="0.6348424104866182" transform="matrix(0.8368573798537745,-0.5474209767484942,0.5474209767484942,0.8368573798537745,265.4116719452379,206.20007786477913)" fill="none" stroke="#ff5c58"></use><use xlink:href="#bbburst-shape-13" width="12.527174654990075" opacity="0.769871335835506" transform="matrix(0.8045704139687213,0.5938572631249031,-0.5938572631249031,0.8045704139687213,562.7704715546508,151.01295841621953)" fill="none" stroke="#2c2891"></use><use xlink:href="#bbburst-shape-7" width="7.003382315921611" opacity="0.9065340125231286" transform="matrix(0.923324018186856,-0.38402181896251464,0.38402181896251464,0.923324018186856,282.16467984309986,16.350197727007128)" fill="#ffbd9b"></use><use xlink:href="#bbburst-shape-1" width="40.45342833282906" opacity="-0.09049439644572366" transform="matrix(0.8774646484115048,0.47964131472181815,-0.47964131472181815,0.8774646484115048,924.3824029135719,-304.29715426518214)" fill="#ffa6d5"></use><use xlink:href="#bbburst-shape-3" width="25.835073584349296" opacity="0.37825736756720896" transform="matrix(0.8779731984643141,0.478709789724779,-0.478709789724779,0.8779731984643141,756.7031716174689,-174.38796818415832)" fill="#ff5c58"></use><use xlink:href="#bbburst-shape-5" width="24.860913237527942" opacity="0.4219821002984525" transform="matrix(0.9497884592110533,-0.31289276557551365,0.31289276557551365,0.9497884592110533,91.32041109759851,219.34482139988336)" fill="#ffa6d5"></use><use xlink:href="#bbburst-shape-10" width="10.099158886687725" opacity="0.8843580092138005" transform="matrix(0.9693200156946454,-0.2458021708076077,0.2458021708076077,0.9693200156946454,328.9998358098587,54.38147043419008)" fill="none" stroke="#00a19d"></use><use xlink:href="#bbburst-shape-10" width="12.971426028365519" opacity="0.7748866633849578" transform="matrix(0.999782876220954,0.020837476223300202,-0.020837476223300202,0.999782876220954,314.18104339344245,50.70526970277615)" fill="none" stroke="#ffa6d5"></use><use xlink:href="#bbburst-shape-10" width="11.755817581592778" opacity="0.8568792212076222" transform="matrix(0.979587197339089,0.20101970751483186,-0.20101970751483186,0.979587197339089,495.89551862789835,67.78278152926407)" fill="none" stroke="#2c2891"></use><use xlink:href="#bbburst-shape-9" width="12.357895749760136" opacity="0.7476072408253147" transform="matrix(0.9818166553838452,0.1898316496553716,-0.1898316496553716,0.9818166553838452,535.2849051808226,-86.83677906411981)" fill="none" stroke="#ffa6d5"></use><use xlink:href="#bbburst-shape-1" width="37.82113112703389" opacity="0.30402226339401184" transform="matrix(0.878648273892735,0.4774695914771089,-0.4774695914771089,0.878648273892735,287.29787435644573,164.81285438220493)" fill="#ffbd9b"></use><use xlink:href="#bbburst-shape-11" width="35.68890503316226" opacity="0.2095713219480293" transform="matrix(0.9135116223524113,-0.4068126298765384,0.4068126298765384,0.9135116223524113,521.8716355782382,230.81599097885237)" fill="none" stroke="#00a19d"></use><use xlink:href="#bbburst-shape-13" width="25.305624303097037" opacity="0.14225237842781147" transform="matrix(0.8970510203852398,-0.4419269926422238,0.4419269926422238,0.8970510203852398,575.2045987421025,177.07865151330589)" fill="none" stroke="#ff5c58"></use><use xlink:href="#bbburst-shape-1" width="10.01243268746109" opacity="0.8398682600304972" transform="matrix(0.808095137949821,0.5890519909327696,-0.5890519909327696,0.808095137949821,581.028277414556,125.18788983898355)" fill="#2c2891"></use><use xlink:href="#bbburst-shape-3" width="38.092724028664605" opacity="0.057166720047069464" transform="matrix(0.9002448152666346,0.4353840518272839,-0.4353840518272839,0.9002448152666346,909.6624742716645,-204.14674419862388)" fill="#ffa6d5"></use><use xlink:href="#bbburst-shape-2" width="30.78634936470024" opacity="0.3819488923371591" transform="matrix(0.7700593328208404,0.6379722752091365,-0.6379722752091365,0.7700593328208404,916.9470331800086,32.33220244497488)" fill="#ffbd9b"></use><use xlink:href="#bbburst-shape-4" width="34.28246668556358" opacity="0.32228061850003176" transform="matrix(0.967676543265589,0.25219458283944274,-0.25219458283944274,0.967676543265589,579.4738595508056,298.3737086034423)" fill="#ffa6d5"></use><use xlink:href="#bbburst-shape-2" width="31.169589545054016" opacity="0.25932720110220353" transform="matrix(0.9822109790801078,-0.18778070341357259,0.18778070341357259,0.9822109790801078,134.14133127227817,-273.33424704854207)" fill="#ffa6d5"></use><use xlink:href="#bbburst-shape-8" width="9.086272051250512" opacity="0.8493009033856662" transform="matrix(0.9994662741986023,-0.03266751811148665,0.03266751811148665,0.9994662741986023,314.5900909109058,-0.9349793493073548)" fill="none" stroke="#2c2891"></use><use xlink:href="#bbburst-shape-8" width="22.279445263603776" opacity="0.6504045387861909" transform="matrix(0.8503884605928688,0.5261553630730099,-0.5261553630730099,0.8503884605928688,594.2067590680823,211.1550925300224)" fill="none" stroke="#ff5c58"></use><use xlink:href="#bbburst-shape-11" width="35.113775044805145" opacity="0.343472581442693" transform="matrix(0.7684612839168133,0.6398962846594148,-0.6398962846594148,0.7684612839168133,915.8352960616603,193.77652529173338)" fill="none" stroke="#ffa6d5"></use><use xlink:href="#bbburst-shape-1" width="21.19818053022392" opacity="0.6528006684667655" transform="matrix(0.8970581429650392,0.4419125344908372,-0.4419125344908372,0.8970581429650392,479.05037357199274,165.48466354458048)" fill="#ffbd9b"></use><use xlink:href="#bbburst-shape-14" width="30.812090127700205" opacity="0.5230404425310804" transform="matrix(0.967323429601228,-0.2535456222152497,0.2535456222152497,0.967323429601228,110.58391616319541,-109.87348082750316)" fill="none" stroke="#ffa6d5"></use><use xlink:href="#bbburst-shape-7" width="28.710575764225432" opacity="0.4217384076494447" transform="matrix(0.999872871773831,-0.01594491425979281,0.01594491425979281,0.999872871773831,309.66732183069917,251.0372629420333)" fill="#ffa6d5"></use><use xlink:href="#bbburst-shape-12" width="37.7372570959787" opacity="0.1491365377310011" transform="matrix(0.9810000542135657,-0.1940074576736189,0.1940074576736189,0.9810000542135657,431.3637073878273,372.2336118470124)" fill="none" stroke="#ff5c58"></use><use xlink:href="#bbburst-shape-11" width="23.11094460386333" opacity="0.5748435281687623" transform="matrix(0.9883283290594685,-0.15233881310591513,0.15233881310591513,0.9883283290594685,145.99891562933328,-54.073983143943224)" fill="none" stroke="#00a19d"></use><use xlink:href="#bbburst-shape-2" width="34.74511782441264" opacity="0.18447713589512305" transform="matrix(0.9154310869203579,0.40247475088483775,-0.40247475088483775,0.9154310869203579,806.4763745309293,-230.7331069582621)" fill="#2c2891"></use><use xlink:href="#bbburst-shape-8" width="10.496304817641994" opacity="0.7626868767133563" transform="matrix(0.9286181406118217,0.3710368565609661,-0.3710368565609661,0.9286181406118217,481.5041483816873,-60.31804187528513)" fill="none" stroke="#ffbd9b"></use><use xlink:href="#bbburst-shape-10" width="30.56878564584413" opacity="0.12812069786431535" transform="matrix(0.7789867081081422,-0.6270404361688647,0.6270404361688647,0.7789867081081422,-229.98900653205288,-40.03416702639004)" fill="none" stroke="#ffbd9b"></use><use xlink:href="#bbburst-shape-14" width="10.95269902647027" opacity="0.7482504717308623" transform="matrix(0.9406426191785678,-0.3393986785255414,0.3393986785255414,0.9406426191785678,170.68801136657902,-45.22473092950639)" fill="none" stroke="#2c2891"></use><use xlink:href="#bbburst-shape-8" width="33.59213727536289" opacity="0.1618822789687423" transform="matrix(0.8324452842620667,-0.5541072537964532,0.5541072537964532,0.8324452842620667,-197.7160277040345,181.84756983258177)" fill="none" stroke="#2c2891"></use><use xlink:href="#bbburst-shape-14" width="20.913316038719547" opacity="0.6306218791831897" transform="matrix(0.9616809914546265,-0.2741708786046517,0.2741708786046517,0.9616809914546265,294.8313266965115,-147.3606127231287)" fill="none" stroke="#2c2891"></use><use xlink:href="#bbburst-shape-12" width="38.710391907748814" opacity="0.29709933431822455" transform="matrix(0.7557827632011217,-0.6548224300129594,0.6548224300129594,0.7557827632011217,397.7711425964037,-47.06954876659455)" fill="none" stroke="#ffbd9b"></use><use xlink:href="#bbburst-shape-11" width="54.44049755721787" opacity="-0.07605187521314227" transform="matrix(0.9756547884850559,-0.21931195522857566,0.21931195522857566,0.9756547884850559,-54.16803718087248,360.06613250991126)" fill="none" stroke="#ffa6d5"></use><use xlink:href="#bbburst-shape-9" width="25.68922342082905" opacity="0.538508463935718" transform="matrix(0.9824531412540818,0.18650958484750121,-0.18650958484750121,0.9824531412540818,668.7319473470059,-15.452307244161318)" fill="none" stroke="#00a19d"></use><use xlink:href="#bbburst-shape-12" width="15.717094641418129" opacity="0.733967825309719" transform="matrix(0.8075619985284338,0.5897826875492039,-0.5897826875492039,0.8075619985284338,658.8662166844388,-43.760560858476026)" fill="none" stroke="#ffbd9b"></use><use xlink:href="#bbburst-shape-12" width="9.076933951801307" opacity="0.8624681854527437" transform="matrix(0.8768983696296571,-0.480675825625597,0.480675825625597,0.8768983696296571,205.32808923941192,-10.461226318584067)" fill="none" stroke="#ff5c58"></use><use xlink:href="#bbburst-shape-5" width="7.632467556193487" opacity="0.8886446320747312" transform="matrix(0.8461645864382205,-0.5329216571484362,0.5329216571484362,0.8461645864382205,154.95471135714425,104.68150036944576)" fill="#2c2891"></use><use xlink:href="#bbburst-shape-14" width="23.87932633770286" opacity="0.6331059051510739" transform="matrix(0.9336913036303232,-0.3580789710735717,0.3580789710735717,0.9336913036303232,403.8187169630048,-16.454794584531726)" fill="none" stroke="#2c2891"></use><use xlink:href="#bbburst-shape-1" width="8.200474794405277" opacity="0.8764000949051955" transform="matrix(0.980534813020575,0.1963453092251151,-0.1963453092251151,0.980534813020575,515.5708828149453,-30.532567847996518)" fill="#00a19d"></use><use xlink:href="#bbburst-shape-4" width="33.28307545805048" opacity="0.05346257302627133" transform="matrix(0.7523441661755875,-0.6587702601222675,0.6587702601222675,0.7523441661755875,-113.33966882690598,-243.64719129533358)" fill="#ff5c58"></use><use xlink:href="#bbburst-shape-13" width="29.28201554172802" opacity="0.512614782213026" transform="matrix(0.8493456394120977,-0.5278370816943944,0.5278370816943944,0.8493456394120977,146.80495507129433,-149.3235469535112)" fill="none" stroke="#00a19d"></use><use xlink:href="#bbburst-shape-6" width="16.107478978061554" opacity="0.699408329432139" transform="matrix(0.9679569094491616,0.2511163504227228,-0.2511163504227228,0.9679569094491616,592.2719482564254,102.2968304417426)" fill="#ffbd9b"></use><use xlink:href="#bbburst-shape-4" width="24.962162435324238" opacity="0.5009669270578543" transform="matrix(0.8814404265253618,-0.47229521963152277,0.47229521963152277,0.8814404265253618,234.69946897574604,-168.54349475756612)" fill="#ffbd9b"></use><use xlink:href="#bbburst-shape-10" width="9.374312767359159" opacity="0.8787492375946372" transform="matrix(0.9866669435873539,0.1627523960867844,-0.1627523960867844,0.9866669435873539,515.0214980578544,5.957816783391081)" fill="none" stroke="#2c2891"></use><use xlink:href="#bbburst-shape-13" width="24.272294666251206" opacity="0.17546993294069912" transform="matrix(0.994038431410548,0.10903025671279165,-0.10903025671279165,0.994038431410548,801.9980159122117,21.956428476121744)" fill="none" stroke="#2c2891"></use><use xlink:href="#bbburst-shape-5" width="39.03228904151963" opacity="0.2855530665758965" transform="matrix(0.9465567032077602,-0.3225374514881276,0.3225374514881276,0.9465567032077602,-63.34686791337002,-32.296511296796496)" fill="#00a19d"></use><use xlink:href="#bbburst-shape-8" width="9.145694505454665" opacity="0.9070039936174387" transform="matrix(0.9818270785708638,0.1897777325847342,-0.1897777325847342,0.9818270785708638,486.33653713914754,-32.69864634885607)" fill="none" stroke="#ffa6d5"></use><use xlink:href="#bbburst-shape-9" width="15.169650829226637" opacity="0.7100480950107338" transform="matrix(0.9523987951445961,-0.3048549409262077,0.3048549409262077,0.9523987951445961,217.51880262099124,-97.84705813205568)" fill="none" stroke="#00a19d"></use><use xlink:href="#bbburst-shape-7" width="11.24836210030434" opacity="0.7953279165575129" transform="matrix(0.871767142949638,0.48992045116878463,-0.48992045116878463,0.871767142949638,618.8462551445435,136.31690126791784)" fill="#2c2891"></use><use xlink:href="#bbburst-shape-4" width="34.87155880529116" opacity="0.062429491261704384" transform="matrix(0.9367858423767802,-0.3499032516602644,0.3499032516602644,0.9367858423767802,32.21744978533442,396.48275692446623)" fill="#2c2891"></use><use xlink:href="#bbburst-shape-8" width="33.513511411551804" opacity="0.4318767804438661" transform="matrix(0.9992527106539443,0.03865255813972334,-0.03865255813972334,0.9992527106539443,156.3077651808213,-81.5742092875376)" fill="none" stroke="#00a19d"></use><use xlink:href="#bbburst-shape-5" width="15.489342559421758" opacity="0.7249063290062335" transform="matrix(0.9976987177352388,0.06780316091053767,-0.06780316091053767,0.9976987177352388,439.2672392806561,122.58201506734338)" fill="#ffa6d5"></use><use xlink:href="#bbburst-shape-2" width="9.392191065609731" opacity="0.8353018052256853" transform="matrix(0.920364592015541,0.39106139896960784,-0.39106139896960784,0.920364592015541,496.99780283181656,-19.54199356767026)" fill="#00a19d"></use><use xlink:href="#bbburst-shape-3" width="34.61856006019032" opacity="0.16037941401076583" transform="matrix(0.808577177598713,0.5883901323666971,-0.5883901323666971,0.808577177598713,322.40203737137927,297.483901695006)" fill="#2c2891"></use><use xlink:href="#bbburst-shape-9" width="35.19521600428593" opacity="0.3485391273765729" transform="matrix(0.8488195932237175,-0.5286826062577836,0.5286826062577836,0.8488195932237175,163.16631376293785,362.55078806351827)" fill="none" stroke="#00a19d"></use><use xlink:href="#bbburst-shape-10" width="17.381850143514672" opacity="0.7110913612811188" transform="matrix(0.70721496452448,-0.7069985812946434,0.7069985812946434,0.70721496452448,-14.530512524075448,156.88574709498164)" fill="none" stroke="#ffa6d5"></use><use xlink:href="#bbburst-shape-5" width="20.308445260422396" opacity="0.6572808301764721" transform="matrix(0.9447309840338035,0.3278465613766922,-0.3278465613766922,0.9447309840338035,389.3355191393565,-60.62803449034976)" fill="#00a19d"></use><use xlink:href="#bbburst-shape-13" width="8.899473219284323" opacity="0.8477179744182688" transform="matrix(0.9665291442442062,-0.256556842291455,0.256556842291455,0.9665291442442062,230.7920496298999,43.10597923243728)" fill="none" stroke="#ffa6d5"></use><use xlink:href="#bbburst-shape-11" width="12.130222360782657" opacity="0.8095101246150976" transform="matrix(0.7445078432719939,0.6676137141390103,-0.6676137141390103,0.7445078432719939,705.0840339900185,23.559759771882625)" fill="none" stroke="#ffbd9b"></use><use xlink:href="#bbburst-shape-3" width="7.4724374709714185" opacity="0.9040997817104215" transform="matrix(0.9991862153661544,-0.04033493550584743,0.04033493550584743,0.9991862153661544,351.81169622270824,-32.10926342119586)" fill="#ffa6d5"></use><use xlink:href="#bbburst-shape-7" width="24.997051649733386" opacity="0.30863479317131626" transform="matrix(0.9012039038959827,-0.4333953433098241,0.4333953433098241,0.9012039038959827,135.8196930936928,-255.82563018398213)" fill="#2c2891"></use><use xlink:href="#bbburst-shape-2" width="33.01835156388845" opacity="-0.09484522403276952" transform="matrix(0.8953834464540157,-0.44529595081937223,0.44529595081937223,0.8953834464540157,550.1708285583101,402.8245400675198)" fill="#00a19d"></use><use xlink:href="#bbburst-shape-8" width="6.468526570947414" opacity="0.9675030914681371" transform="matrix(0.9403773052638833,-0.3401330971026448,0.3401330971026448,0.9403773052638833,255.82336257578618,38.661325642865904)" fill="none" stroke="#ffa6d5"></use><use xlink:href="#bbburst-shape-9" width="31.300278782214306" opacity="0.19858866493756033" transform="matrix(0.9873561297196177,0.15851773750939505,-0.15851773750939505,0.9873561297196177,481.28287467004856,361.4633050493297)" fill="none" stroke="#2c2891"></use><use xlink:href="#bbburst-shape-7" width="18.47458142186878" opacity="0.6745615622834215" transform="matrix(0.9150720671542972,-0.40329035683234654,0.40329035683234654,0.9150720671542972,85.54177138986299,14.694508523748596)" fill="#ffa6d5"></use><use xlink:href="#bbburst-shape-5" width="28.680871663327416" opacity="0.3229018727901668" transform="matrix(0.8740256872488075,-0.4858797155976465,0.4858797155976465,0.8740256872488075,-43.054739177038954,249.87438158695824)" fill="#ff5c58"></use><use xlink:href="#bbburst-shape-2" width="19.289494911522304" opacity="0.5693317117598127" transform="matrix(0.9476656664186857,0.31926444319909525,-0.31926444319909525,0.9476656664186857,706.3536757225054,65.75174569642462)" fill="#2c2891"></use></svg>